<svg width="20" height="20" viewBox="0 0 20 20" fill="none" xmlns="http://www.w3.org/2000/svg">
<path fill-rule="evenodd" clip-rule="evenodd" d="M9.28849 0.310042C9.4675 0.113497 9.72654 0 9.99936 0C10.2722 0 10.5312 0.113486 10.7102 0.310042L11.8987 1.62008C12.1078 1.85036 12.3772 2.02139 12.681 2.11516C12.9839 2.20891 13.3075 2.22206 13.6182 2.15381L15.3859 1.76153C15.6518 1.70232 15.9307 1.7566 16.151 1.91038C16.3721 2.06334 16.5124 2.30101 16.5357 2.56005L16.6914 4.28701C16.719 4.59047 16.8326 4.87994 17.0193 5.12665C17.2069 5.37255 17.46 5.56579 17.7543 5.68421L19.4256 6.35937C19.6769 6.46052 19.8696 6.662 19.954 6.90954C20.0383 7.15707 20.0056 7.42844 19.8653 7.65131L18.9281 9.13568C18.7629 9.3972 18.6751 9.69573 18.6751 10C18.6751 10.3043 18.762 10.6028 18.9264 10.8635L19.8636 12.3479C20.0039 12.5716 20.0366 12.8421 19.9522 13.0896C19.8679 13.338 19.6751 13.5387 19.4238 13.6398L17.7526 14.315C17.4591 14.4334 17.2052 14.6267 17.0176 14.8725C16.8309 15.1184 16.7173 15.4087 16.6897 15.7122L16.5339 17.4391C16.5107 17.699 16.3704 17.9367 16.1493 18.0888C15.9289 18.2418 15.6493 18.296 15.3842 18.2376L13.6165 17.8454C13.3067 17.7771 12.9822 17.7903 12.6793 17.884C12.3764 17.9786 12.1061 18.1496 11.897 18.3791L10.7085 19.6891C10.5312 19.8865 10.2722 20 9.99936 20C9.72654 20 9.4675 19.8865 9.28849 19.69L8.1 18.3799C7.89088 18.1496 7.6215 17.9786 7.31771 17.8848C7.01478 17.7911 6.69118 17.7779 6.38051 17.8462L4.61284 18.2385C4.34692 18.2977 4.06806 18.2434 3.84775 18.0896C3.62657 17.9367 3.4863 17.699 3.46306 17.44L3.30729 15.713C3.27975 15.4095 3.16615 15.1201 2.97939 14.8733C2.79178 14.6275 2.53876 14.4342 2.24444 14.3158L0.573157 13.6406C0.321866 13.5395 0.129091 13.338 0.0447542 13.0905C-0.0378639 12.8421 -0.00516032 12.5716 0.135119 12.3479L1.07232 10.8635C1.23583 10.6028 1.32361 10.3043 1.32361 10C1.32361 9.69571 1.23669 9.3972 1.07232 9.13651L0.135119 7.65213C-0.00516032 7.42844 -0.0378639 7.15787 0.0464771 6.91036C0.130816 6.662 0.323589 6.46135 0.57488 6.36019L2.24617 5.68503C2.53963 5.56661 2.79352 5.37335 2.98112 5.12748C3.16787 4.88158 3.28147 4.59129 3.30901 4.28783L3.46478 2.56087C3.48802 2.30099 3.6283 2.06333 3.84947 1.9112C4.06979 1.75824 4.34948 1.70397 4.61456 1.76236L6.38223 2.15463C6.69204 2.22289 7.0165 2.20973 7.31943 2.11598C7.62237 2.02141 7.8926 1.85036 8.10173 1.6209L9.28849 0.310042ZM5.15076 10.3471L8.14043 13.2039C8.33493 13.3898 8.65077 13.3898 8.84526 13.2039L14.8471 7.46878C15.0416 7.28292 15.0416 6.98111 14.8471 6.79526C14.6526 6.60941 14.3367 6.60941 14.1423 6.79526L8.49315 12.1942L5.85533 9.67358C5.66083 9.48772 5.34499 9.48772 5.15049 9.67358C4.95686 9.85943 4.95686 10.1612 5.15049 10.3471H5.15076Z" fill="#2867D9"/>
</svg>